<svg xmlns="http://www.w3.org/2000/svg" viewBox="0 0 64 64">
  <defs>
    <linearGradient id="g" x1="0%" y1="0%" x2="100%" y2="100%">
      <stop offset="0%" stop-color="#E6C878"/>
      <stop offset="55%" stop-color="#C8A24A"/>
      <stop offset="100%" stop-color="#9A7B2E"/>
    </linearGradient>
  </defs>
  <rect width="64" height="64" rx="10" fill="#0B0B0C"/>
  <g transform="translate(12 11)" fill="url(#g)">
    <path d="M20 0 L22.5 4 L25 0.6 L26.5 5 L29.6 1.5 L30.8 5.7 L34.5 3.4 L34.6 8 L38.6 6.5 L38 11 L41.5 11 L39.5 14.5 L41 17 L37.5 17.5 L38.5 21 L35 21 L35 25 L32 23 L31 27 L28 24 L25 27 L23 23 L20 25 L20 21 L16.5 21 L17.5 17.5 L14 17 L15.5 14.5 L13.5 11 L17 11 L16.4 6.5 L20.4 8 Z"/>
    <ellipse cx="20" cy="17" rx="6.5" ry="6" fill="#0B0B0C"/>
    <circle cx="17.6" cy="15.5" r="1" fill="#E6C878"/>
    <circle cx="22.4" cy="15.5" r="1" fill="#E6C878"/>
    <path d="M19.2 18.4 L20.8 18.4 L20 19.6 Z" fill="#E6C878"/>
  </g>
</svg>
